<?xml version="1.0" encoding="UTF-8" standalone="no"?>
<!-- Created with Inkscape (http://www.inkscape.org/) -->

<svg
   xmlns:dc="http://purl.org/dc/elements/1.1/"
   xmlns:cc="http://creativecommons.org/ns#"
   xmlns:rdf="http://www.w3.org/1999/02/22-rdf-syntax-ns#"
   xmlns:svg="http://www.w3.org/2000/svg"
   xmlns="http://www.w3.org/2000/svg"
   xmlns:sodipodi="http://sodipodi.sourceforge.net/DTD/sodipodi-0.dtd"
   xmlns:inkscape="http://www.inkscape.org/namespaces/inkscape"
   width="744.09448819"
   height="1052.3622047"
   id="svg2"
   version="1.1"
   inkscape:version="0.48.4 r9939"
   sodipodi:docname="New document 1">
  <defs
     id="defs4" />
  <sodipodi:namedview
     id="base"
     pagecolor="#ffffff"
     bordercolor="#666666"
     borderopacity="1.0"
     inkscape:pageopacity="0.0"
     inkscape:pageshadow="2"
     inkscape:zoom="1.979899"
     inkscape:cx="369.90665"
     inkscape:cy="499.17413"
     inkscape:document-units="px"
     inkscape:current-layer="layer1"
     showgrid="false"
     inkscape:window-width="1920"
     inkscape:window-height="1018"
     inkscape:window-x="-8"
     inkscape:window-y="-8"
     inkscape:window-maximized="1" />
  <metadata
     id="metadata7">
    <rdf:RDF>
      <cc:Work
         rdf:about="">
        <dc:format>image/svg+xml</dc:format>
        <dc:type
           rdf:resource="http://purl.org/dc/dcmitype/StillImage" />
        <dc:title></dc:title>
      </cc:Work>
    </rdf:RDF>
  </metadata>
  <g
     inkscape:label="Layer 1"
     inkscape:groupmode="layer"
     id="layer1">
    <path
       style="fill:none;stroke:#0000a9;stroke-width:1;stroke-linecap:butt;stroke-linejoin:miter;stroke-miterlimit:4;stroke-opacity:1;stroke-dasharray:2,1,0.5,1;stroke-dashoffset:0"
       d="m 716.4381,520.2192 c 0,0 -12.19803,102.37969 -82.05511,106.19776 C 529.43056,632.1532 576.00829,398.01369 462.05555,397.04361 358.73341,396.16404 407.47389,625.74004 294.86468,627.32312 189.59622,628.80299 228.57245,394.65983 123.29681,395.61554 55.303043,396.23281 36.026185,511.29112 36.026185,511.29112"
       id="path2991"
       inkscape:connector-curvature="0"
       sodipodi:nodetypes="cssssc" />
    <path
       style="fill:none;stroke:#000000;stroke-width:1.00327897;stroke-linecap:butt;stroke-linejoin:miter;stroke-miterlimit:4;stroke-opacity:1;stroke-dasharray:0.5016395, 0.5016395;stroke-dashoffset:0"
       d="m 33.655715,512.21932 690.218705,0"
       id="path2987"
       inkscape:connector-curvature="0"
       sodipodi:nodetypes="cc" />
    <path
       style="fill:none;stroke:#00a300;stroke-width:0.5;stroke-linecap:butt;stroke-linejoin:miter;stroke-miterlimit:4;stroke-opacity:1;stroke-dasharray:none;stroke-dashoffset:0"
       d="m 721.22192,396.77737 c -14.46949,-1.22102 -7.91661,227.35077 -22.38676,228.22126 -14.74349,0.88694 -9.33354,-228.58092 -24.07761,-228.22503 -10.79776,0.26062 -12.22114,114.58177 -12.22114,114.58177 0,0 -1.2372,115.83009 -11.04946,113.57759 -15.74918,-3.61541 -8.61397,-226.24212 -24.37266,-227.57193 -14.46949,-1.22103 -8.44427,226.63721 -22.91443,227.50771 -14.74349,0.88693 -9.86122,-226.79705 -24.6053,-226.44117 -10.79775,0.26063 -12.08615,113.20412 -12.08615,113.20412 0,0 -1.10224,116.59308 -10.91447,114.34058 -15.74924,-3.6154 -9.66937,-227.31245 -25.42805,-228.64226 -14.4695,-1.22103 -7.91659,227.35076 -22.38677,228.22125 -14.74347,0.88694 -9.33351,-228.58092 -24.07759,-228.22504 -10.79777,0.26064 -12.25222,114.57423 -12.25222,114.57423 0,0 -1.26826,115.82253 -11.08051,113.57003 -15.74919,-3.6154 -8.61398,-226.24212 -24.37267,-227.57193 -14.46948,-1.22103 -8.44427,226.63723 -22.91443,227.50771 -14.74349,0.88694 -9.86121,-226.79705 -24.60529,-226.44116 -10.79776,0.26062 -12.08615,113.20411 -12.08615,113.20411 0,0 -1.10224,116.59308 -10.91449,114.34059 -15.7492,-3.61541 -9.66934,-227.31245 -25.42803,-228.64226 -14.46949,-1.22103 -7.9166,227.35075 -22.38676,228.22125 -14.74349,0.88693 -9.33353,-228.58092 -24.07761,-228.22504 -10.79776,0.26063 -12.12586,114.27812 -12.12586,114.27812 0,0 -1.14194,115.52643 -10.95418,113.27394 -15.74919,-3.61541 -8.61398,-226.24212 -24.37266,-227.57194 -14.46949,-1.22103 -8.44428,226.63722 -22.91445,227.50771 -14.74347,0.88694 -9.86121,-226.79706 -24.60529,-226.44117 -10.79776,0.26064 -12.08615,113.20412 -12.08615,113.20412 0,0 -1.10222,116.59309 -10.91449,114.34058 -15.74921,-3.6154 -9.66935,-227.31246 -25.42803,-228.64226 -14.4695,-1.22104 -7.91659,227.35076 -22.38677,228.22125 -14.74348,0.88693 -9.33352,-228.58093 -24.0776,-228.22504 -10.797745,0.26064 -12.252219,114.57423 -12.252219,114.57423 0,0 -1.268263,115.82253 -11.080501,113.57004 C 65.635982,622.33793 72.77119,399.7112 57.012498,398.38139 42.543006,397.16036 48.568239,625.01861 34.098064,625.88911"
       id="path4121"
       inkscape:connector-curvature="0" />
    <g
       id="g4193"
       transform="translate(26,6)">
      <path
         inkscape:connector-curvature="0"
         id="path3873"
         d="m 39.172593,386.1665 0,246.47722"
         style="fill:none;stroke:#000000;stroke-width:1;stroke-linecap:butt;stroke-linejoin:miter;stroke-miterlimit:4;stroke-opacity:1;stroke-dasharray:0.5, 0.5;stroke-dashoffset:0" />
      <path
         inkscape:connector-curvature="0"
         id="path3873-8"
         d="m 80.423856,386.14627 0,246.47722"
         style="fill:none;stroke:#000000;stroke-width:1;stroke-linecap:butt;stroke-linejoin:miter;stroke-miterlimit:4;stroke-opacity:1;stroke-dasharray:0.5, 0.5;stroke-dashoffset:0" />
      <path
         inkscape:connector-curvature="0"
         id="path3873-5"
         d="m 122.37437,383.77654 0,246.47722"
         style="fill:none;stroke:#000000;stroke-width:1;stroke-linecap:butt;stroke-linejoin:miter;stroke-miterlimit:4;stroke-opacity:1;stroke-dasharray:0.5, 0.5;stroke-dashoffset:0" />
      <path
         inkscape:connector-curvature="0"
         id="path3873-8-5"
         d="m 163.62563,383.75631 0,246.47722"
         style="fill:none;stroke:#000000;stroke-width:1;stroke-linecap:butt;stroke-linejoin:miter;stroke-miterlimit:4;stroke-opacity:1;stroke-dasharray:0.5, 0.5;stroke-dashoffset:0" />
      <path
         inkscape:connector-curvature="0"
         id="path3873-1"
         d="m 206.37437,381.77654 0,246.47722"
         style="fill:none;stroke:#000000;stroke-width:1;stroke-linecap:butt;stroke-linejoin:miter;stroke-miterlimit:4;stroke-opacity:1;stroke-dasharray:0.5, 0.5;stroke-dashoffset:0" />
      <path
         inkscape:connector-curvature="0"
         id="path3873-8-7"
         d="m 247.62563,381.75631 0,246.47722"
         style="fill:none;stroke:#000000;stroke-width:1;stroke-linecap:butt;stroke-linejoin:miter;stroke-miterlimit:4;stroke-opacity:1;stroke-dasharray:0.5, 0.5;stroke-dashoffset:0" />
      <path
         inkscape:connector-curvature="0"
         id="path3873-11"
         d="m 290.37437,383.77654 0,246.47722"
         style="fill:none;stroke:#000000;stroke-width:1;stroke-linecap:butt;stroke-linejoin:miter;stroke-miterlimit:4;stroke-opacity:1;stroke-dasharray:0.5, 0.5;stroke-dashoffset:0" />
      <path
         inkscape:connector-curvature="0"
         id="path3873-8-52"
         d="m 331.62563,383.75631 0,246.47722"
         style="fill:none;stroke:#000000;stroke-width:1;stroke-linecap:butt;stroke-linejoin:miter;stroke-miterlimit:4;stroke-opacity:1;stroke-dasharray:0.5, 0.5;stroke-dashoffset:0" />
      <path
         inkscape:connector-curvature="0"
         id="path3873-14"
         d="m 372.77348,383.54295 0,246.47722"
         style="fill:none;stroke:#000000;stroke-width:1;stroke-linecap:butt;stroke-linejoin:miter;stroke-miterlimit:4;stroke-opacity:1;stroke-dasharray:0.5, 0.5;stroke-dashoffset:0" />
      <path
         inkscape:connector-curvature="0"
         id="path3873-8-2"
         d="m 414.02474,383.52272 0,246.47722"
         style="fill:none;stroke:#000000;stroke-width:1;stroke-linecap:butt;stroke-linejoin:miter;stroke-miterlimit:4;stroke-opacity:1;stroke-dasharray:0.5, 0.5;stroke-dashoffset:0" />
      <path
         inkscape:connector-curvature="0"
         id="path3873-5-3"
         d="m 455.97526,381.15299 0,246.47722"
         style="fill:none;stroke:#000000;stroke-width:1;stroke-linecap:butt;stroke-linejoin:miter;stroke-miterlimit:4;stroke-opacity:1;stroke-dasharray:0.5, 0.5;stroke-dashoffset:0" />
      <path
         inkscape:connector-curvature="0"
         id="path3873-8-5-2"
         d="m 497.22652,381.13276 0,246.47722"
         style="fill:none;stroke:#000000;stroke-width:1;stroke-linecap:butt;stroke-linejoin:miter;stroke-miterlimit:4;stroke-opacity:1;stroke-dasharray:0.5, 0.5;stroke-dashoffset:0" />
      <path
         inkscape:connector-curvature="0"
         id="path3873-1-2"
         d="m 539.97526,379.15299 0,246.47722"
         style="fill:none;stroke:#000000;stroke-width:1;stroke-linecap:butt;stroke-linejoin:miter;stroke-miterlimit:4;stroke-opacity:1;stroke-dasharray:0.5, 0.5;stroke-dashoffset:0" />
      <path
         inkscape:connector-curvature="0"
         id="path3873-8-7-1"
         d="m 581.22652,379.13276 0,246.47722"
         style="fill:none;stroke:#000000;stroke-width:1;stroke-linecap:butt;stroke-linejoin:miter;stroke-miterlimit:4;stroke-opacity:1;stroke-dasharray:0.5, 0.5;stroke-dashoffset:0" />
      <path
         inkscape:connector-curvature="0"
         id="path3873-11-6"
         d="m 623.97526,381.15299 0,246.47722"
         style="fill:none;stroke:#000000;stroke-width:1;stroke-linecap:butt;stroke-linejoin:miter;stroke-miterlimit:4;stroke-opacity:1;stroke-dasharray:0.5, 0.5;stroke-dashoffset:0" />
      <path
         inkscape:connector-curvature="0"
         id="path3873-8-52-8"
         d="m 665.22652,381.13276 0,246.47722"
         style="fill:none;stroke:#000000;stroke-width:1;stroke-linecap:butt;stroke-linejoin:miter;stroke-miterlimit:4;stroke-opacity:1;stroke-dasharray:0.5, 0.5;stroke-dashoffset:0" />
    </g>
    <path
       sodipodi:type="arc"
       style="fill:#ff0000;fill-opacity:0.53968255;fill-rule:nonzero;stroke:none"
       id="path4001"
       sodipodi:cx="8.8392859"
       sodipodi:cy="406.73718"
       sodipodi:rx="2.2321429"
       sodipodi:ry="2.2321429"
       d="m 11.071429,406.73718 a 2.2321429,2.2321429 0 1 1 -4.4642861,0 2.2321429,2.2321429 0 1 1 4.4642861,0 z"
       transform="translate(56.357143,25.892857)" />
    <path
       sodipodi:type="arc"
       style="fill:#ff0000;fill-opacity:0.53968255;fill-rule:nonzero;stroke:none"
       id="path4001-5"
       sodipodi:cx="8.8392859"
       sodipodi:cy="406.73718"
       sodipodi:rx="2.2321429"
       sodipodi:ry="2.2321429"
       d="m 11.071429,406.73718 a 2.2321429,2.2321429 0 1 1 -4.4642861,0 2.2321429,2.2321429 0 1 1 4.4642861,0 z"
       transform="translate(97.517857,-7.9464296)" />
    <path
       sodipodi:type="arc"
       style="fill:#ff0000;fill-opacity:0.53968255;fill-rule:nonzero;stroke:none"
       id="path4001-7"
       sodipodi:cx="8.8392859"
       sodipodi:cy="406.73718"
       sodipodi:rx="2.2321429"
       sodipodi:ry="2.2321429"
       d="m 11.071429,406.73718 a 2.2321429,2.2321429 0 1 1 -4.4642861,0 2.2321429,2.2321429 0 1 1 4.4642861,0 z"
       transform="translate(139.48214,-5.9821442)" />
    <path
       sodipodi:type="arc"
       style="fill:#ff0000;fill-opacity:0.53968255;fill-rule:nonzero;stroke:none"
       id="path4001-6"
       sodipodi:cx="8.8392859"
       sodipodi:cy="406.73718"
       sodipodi:rx="2.2321429"
       sodipodi:ry="2.2321429"
       d="m 11.071429,406.73718 a 2.2321429,2.2321429 0 1 1 -4.4642861,0 2.2321429,2.2321429 0 1 1 4.4642861,0 z"
       transform="translate(180.55357,47.410713)" />
    <path
       sodipodi:type="arc"
       style="fill:#ff0000;fill-opacity:0.53968255;fill-rule:nonzero;stroke:none"
       id="path4001-1"
       sodipodi:cx="8.8392859"
       sodipodi:cy="406.73718"
       sodipodi:rx="2.2321429"
       sodipodi:ry="2.2321429"
       d="m 11.071429,406.73718 a 2.2321429,2.2321429 0 1 1 -4.4642861,0 2.2321429,2.2321429 0 1 1 4.4642861,0 z"
       transform="translate(223.76786,175.80357)" />
    <path
       sodipodi:type="arc"
       style="fill:#ff0000;fill-opacity:0.53968255;fill-rule:nonzero;stroke:none"
       id="path4001-8"
       sodipodi:cx="8.8392859"
       sodipodi:cy="406.73718"
       sodipodi:rx="2.2321429"
       sodipodi:ry="2.2321429"
       d="m 11.071429,406.73718 a 2.2321429,2.2321429 0 1 1 -4.4642861,0 2.2321429,2.2321429 0 1 1 4.4642861,0 z"
       transform="translate(264.83929,216.69642)" />
    <path
       sodipodi:type="arc"
       style="fill:#ff0000;fill-opacity:0.53968255;fill-rule:nonzero;stroke:none"
       id="path4001-9"
       sodipodi:cx="8.8392859"
       sodipodi:cy="406.73718"
       sodipodi:rx="2.2321429"
       sodipodi:ry="2.2321429"
       d="m 11.071429,406.73718 a 2.2321429,2.2321429 0 1 1 -4.4642861,0 2.2321429,2.2321429 0 1 1 4.4642861,0 z"
       transform="translate(307.16072,217.76785)" />
    <path
       sodipodi:type="arc"
       style="fill:#ff0000;fill-opacity:0.53968255;fill-rule:nonzero;stroke:none"
       id="path4001-2"
       sodipodi:cx="8.8392859"
       sodipodi:cy="406.73718"
       sodipodi:rx="2.2321429"
       sodipodi:ry="2.2321429"
       d="m 11.071429,406.73718 a 2.2321429,2.2321429 0 1 1 -4.4642861,0 2.2321429,2.2321429 0 1 1 4.4642861,0 z"
       transform="translate(348.76786,176.51785)" />
    <path
       sodipodi:type="arc"
       style="fill:#ff0000;fill-opacity:0.53968255;fill-rule:nonzero;stroke:none"
       id="path4001-79"
       sodipodi:cx="8.8392859"
       sodipodi:cy="406.73718"
       sodipodi:rx="2.2321429"
       sodipodi:ry="2.2321429"
       d="m 11.071429,406.73718 a 2.2321429,2.2321429 0 1 1 -4.4642861,0 2.2321429,2.2321429 0 1 1 4.4642861,0 z"
       transform="translate(390.01786,45.625)" />
    <path
       sodipodi:type="arc"
       style="fill:#ff0000;fill-opacity:0.53968255;fill-rule:nonzero;stroke:none"
       id="path4001-54"
       sodipodi:cx="8.8392859"
       sodipodi:cy="406.73718"
       sodipodi:rx="2.2321429"
       sodipodi:ry="2.2321429"
       d="m 11.071429,406.73718 a 2.2321429,2.2321429 0 1 1 -4.4642861,0 2.2321429,2.2321429 0 1 1 4.4642861,0 z"
       transform="translate(430.91071,-4.7321445)" />
    <path
       sodipodi:type="arc"
       style="fill:#ff0000;fill-opacity:0.53968255;fill-rule:nonzero;stroke:none"
       id="path4001-3"
       sodipodi:cx="8.8392859"
       sodipodi:cy="406.73718"
       sodipodi:rx="2.2321429"
       sodipodi:ry="2.2321429"
       d="m 11.071429,406.73718 a 2.2321429,2.2321429 0 1 1 -4.4642861,0 2.2321429,2.2321429 0 1 1 4.4642861,0 z"
       transform="translate(473.05357,-6.5178586)" />
    <path
       sodipodi:type="arc"
       style="fill:#ff0000;fill-opacity:0.53968255;fill-rule:nonzero;stroke:none"
       id="path4001-12"
       sodipodi:cx="8.8392859"
       sodipodi:cy="406.73718"
       sodipodi:rx="2.2321429"
       sodipodi:ry="2.2321429"
       d="m 11.071429,406.73718 a 2.2321429,2.2321429 0 1 1 -4.4642861,0 2.2321429,2.2321429 0 1 1 4.4642861,0 z"
       transform="translate(514.48214,29.017856)" />
    <path
       sodipodi:type="arc"
       style="fill:#ff0000;fill-opacity:0.53968255;fill-rule:nonzero;stroke:none"
       id="path4001-33"
       sodipodi:cx="8.8392859"
       sodipodi:cy="406.73718"
       sodipodi:rx="2.2321429"
       sodipodi:ry="2.2321429"
       d="m 11.071429,406.73718 a 2.2321429,2.2321429 0 1 1 -4.4642861,0 2.2321429,2.2321429 0 1 1 4.4642861,0 z"
       transform="translate(557.16072,156.51785)" />
    <path
       sodipodi:type="arc"
       style="fill:#ff0000;fill-opacity:0.53968255;fill-rule:nonzero;stroke:none"
       id="path4001-4"
       sodipodi:cx="8.8392859"
       sodipodi:cy="406.73718"
       sodipodi:rx="2.2321429"
       sodipodi:ry="2.2321429"
       d="m 11.071429,406.73718 a 2.2321429,2.2321429 0 1 1 -4.4642861,0 2.2321429,2.2321429 0 1 1 4.4642861,0 z"
       transform="translate(598.58928,213.66071)" />
    <path
       sodipodi:type="arc"
       style="fill:#ff0000;fill-opacity:0.53968255;fill-rule:nonzero;stroke:none"
       id="path4001-11"
       sodipodi:cx="8.8392859"
       sodipodi:cy="406.73718"
       sodipodi:rx="2.2321429"
       sodipodi:ry="2.2321429"
       d="m 11.071429,406.73718 a 2.2321429,2.2321429 0 1 1 -4.4642861,0 2.2321429,2.2321429 0 1 1 4.4642861,0 z"
       transform="translate(641.08929,217.05357)" />
    <path
       sodipodi:type="arc"
       style="fill:#ff0000;fill-opacity:0.53968255;fill-rule:nonzero;stroke:none"
       id="path4001-38"
       sodipodi:cx="8.8392859"
       sodipodi:cy="406.73718"
       sodipodi:rx="2.2321429"
       sodipodi:ry="2.2321429"
       d="m 11.071429,406.73718 a 2.2321429,2.2321429 0 1 1 -4.4642861,0 2.2321429,2.2321429 0 1 1 4.4642861,0 z"
       transform="translate(682.16071,184.55357)" />
  </g>
</svg>
